HIERARCHY
ROOT Hips
{
	OFFSET 0.000000 100.481300 0.000000
	CHANNELS 6 Xposition Yposition Zposition Xrotation Yrotation Zrotation
	JOINT Spine
	{
		OFFSET -0.279200 12.230698 -2.892100
		CHANNELS 3 Xrotation Yrotation Zrotation
		JOINT Spine1
		{
			OFFSET -0.325700 14.269203 -3.374200
			CHANNELS 3 Xrotation Yrotation Zrotation
			JOINT Spine2
			{
				OFFSET -0.372300 16.307602 -0.352600
				CHANNELS 3 Xrotation Yrotation Zrotation
				JOINT Neck
				{
					OFFSET -0.418800 17.814194 8.416900
					CHANNELS 3 Xrotation Yrotation Zrotation
					JOINT Head
					{
						OFFSET 0.000000 7.031097 3.806800
						CHANNELS 3 Xrotation Yrotation Zrotation
						JOINT HeadTop_End
						{
							OFFSET 0.000000 24.646606 12.978600
							CHANNELS 3 Xrotation Yrotation Zrotation
							End Site
							{
								OFFSET 0.000000 27.854965 0.000000
							}
						}
					}
				}
				JOINT LeftShoulder
				{
					OFFSET 16.952999 14.495407 -7.737500
					CHANNELS 3 Xrotation Yrotation Zrotation
					JOINT LeftArm
					{
						OFFSET 9.308998 -2.777710 0.208600
						CHANNELS 3 Xrotation Yrotation Zrotation
						JOINT LeftForeArm
						{
							OFFSET 29.972298 0.000000 0.000000
							CHANNELS 3 Xrotation Yrotation Zrotation
							JOINT LeftHand
							{
								OFFSET 26.026505 0.000000 0.000000
								CHANNELS 3 Xrotation Yrotation Zrotation
								JOINT LeftHandThumb1
								{
									OFFSET 12.240501 -7.147949 9.207150
									CHANNELS 3 Xrotation Yrotation Zrotation
									JOINT LeftHandThumb2
									{
										OFFSET 4.138618 -2.389435 2.389433
										CHANNELS 3 Xrotation Yrotation Zrotation
										JOINT LeftHandThumb3
										{
											OFFSET 2.726913 -1.574387 1.574386
											CHANNELS 3 Xrotation Yrotation Zrotation
											JOINT LeftHandThumb4
											{
												OFFSET 3.941010 -2.275345 2.275342
												CHANNELS 3 Xrotation Yrotation Zrotation
												End Site
												{
													OFFSET -0.005798 5.087799 0.009903
												}
											}
										}
									}
								}
								JOINT LeftHandIndex1
								{
									OFFSET 24.424698 -1.985611 5.953459
									CHANNELS 3 Xrotation Yrotation Zrotation
									JOINT LeftHandIndex2
									{
										OFFSET 6.426697 0.000000 0.000000
										CHANNELS 3 Xrotation Yrotation Zrotation
										JOINT LeftHandIndex3
										{
											OFFSET 5.337898 0.000000 0.000000
											CHANNELS 3 Xrotation Yrotation Zrotation
											JOINT LeftHandIndex4
											{
												OFFSET 4.409401 0.000000 0.000000
												CHANNELS 3 Xrotation Yrotation Zrotation
												End Site
												{
													OFFSET 0.000000 4.409363 0.014373
												}
											}
										}
									}
								}
								JOINT LeftHandMiddle1
								{
									OFFSET 23.810104 0.000000 0.000000
									CHANNELS 3 Xrotation Yrotation Zrotation
									JOINT LeftHandMiddle2
									{
										OFFSET 7.176498 0.000000 0.000000
										CHANNELS 3 Xrotation Yrotation Zrotation
										JOINT LeftHandMiddle3
										{
											OFFSET 6.774902 0.000000 0.000000
											CHANNELS 3 Xrotation Yrotation Zrotation
											JOINT LeftHandMiddle4
											{
												OFFSET 5.403328 0.000000 0.000000
												CHANNELS 3 Xrotation Yrotation Zrotation
												End Site
												{
													OFFSET -0.027702 5.403244 0.017414
												}
											}
										}
									}
								}
								JOINT LeftHandRing1
								{
									OFFSET 22.908401 -0.839279 -6.020567
									CHANNELS 3 Xrotation Yrotation Zrotation
									JOINT LeftHandRing2
									{
										OFFSET 6.337502 0.000000 0.000000
										CHANNELS 3 Xrotation Yrotation Zrotation
										JOINT LeftHandRing3
										{
											OFFSET 5.779297 0.000000 0.000000
											CHANNELS 3 Xrotation Yrotation Zrotation
											JOINT LeftHandRing4
											{
												OFFSET 4.965698 0.000000 0.000000
												CHANNELS 3 Xrotation Yrotation Zrotation
												End Site
												{
													OFFSET 0.000000 4.965668 0.016186
												}
											}
										}
									}
								}
								JOINT LeftHandPinky1
								{
									OFFSET 20.037003 -1.530319 -10.950146
									CHANNELS 3 Xrotation Yrotation Zrotation
									JOINT LeftHandPinky2
									{
										OFFSET 5.254700 0.000000 0.000000
										CHANNELS 3 Xrotation Yrotation Zrotation
										JOINT LeftHandPinky3
										{
											OFFSET 4.810204 0.000000 0.000000
											CHANNELS 3 Xrotation Yrotation Zrotation
											JOINT LeftHandPinky4
											{
												OFFSET 3.647202 0.000000 0.000000
												CHANNELS 3 Xrotation Yrotation Zrotation
												End Site
												{
													OFFSET 0.000000 3.647186 0.011889
												}
											}
										}
									}
								}
							}
						}
					}
				}
				JOINT RightShoulder
				{
					OFFSET -15.141001 14.495407 -7.737500
					CHANNELS 3 Xrotation Yrotation Zrotation
					JOINT RightArm
					{
						OFFSET -9.308998 -2.777710 0.208500
						CHANNELS 3 Xrotation Yrotation Zrotation
						JOINT RightForeArm
						{
							OFFSET -29.972300 0.000000 0.000000
							CHANNELS 3 Xrotation Yrotation Zrotation
							JOINT RightHand
							{
								OFFSET -26.026505 0.000000 0.000000
								CHANNELS 3 Xrotation Yrotation Zrotation
								JOINT RightHandThumb1
								{
									OFFSET -12.240601 -7.148026 9.207092
									CHANNELS 3 Xrotation Yrotation Zrotation
									JOINT RightHandThumb2
									{
										OFFSET -4.138618 -2.389435 2.389433
										CHANNELS 3 Xrotation Yrotation Zrotation
										JOINT RightHandThumb3
										{
											OFFSET -2.726974 -1.574417 1.574421
											CHANNELS 3 Xrotation Yrotation Zrotation
											JOINT RightHandThumb4
											{
												OFFSET -3.941010 -2.275345 2.275343
												CHANNELS 3 Xrotation Yrotation Zrotation
												End Site
												{
													OFFSET 0.005814 5.087799 0.009927
												}
											}
										}
									}
								}
								JOINT RightHandIndex1
								{
									OFFSET -24.424698 -1.985657 5.953444
									CHANNELS 3 Xrotation Yrotation Zrotation
									JOINT RightHandIndex2
									{
										OFFSET -6.426697 0.000000 0.000000
										CHANNELS 3 Xrotation Yrotation Zrotation
										JOINT RightHandIndex3
										{
											OFFSET -5.337898 0.000000 0.000000
											CHANNELS 3 Xrotation Yrotation Zrotation
											JOINT RightHandIndex4
											{
												OFFSET -4.409401 0.000000 0.000000
												CHANNELS 3 Xrotation Yrotation Zrotation
												End Site
												{
													OFFSET 0.000000 4.409363 0.014408
												}
											}
										}
									}
								}
								JOINT RightHandMiddle1
								{
									OFFSET -23.810097 0.000000 0.000000
									CHANNELS 3 Xrotation Yrotation Zrotation
									JOINT RightHandMiddle2
									{
										OFFSET -7.176498 0.000000 0.000000
										CHANNELS 3 Xrotation Yrotation Zrotation
										JOINT RightHandMiddle3
										{
											OFFSET -6.774902 0.000000 0.000000
											CHANNELS 3 Xrotation Yrotation Zrotation
											JOINT RightHandMiddle4
											{
												OFFSET -5.403328 0.000000 0.000000
												CHANNELS 3 Xrotation Yrotation Zrotation
												End Site
												{
													OFFSET 0.027702 5.403244 0.017457
												}
											}
										}
									}
								}
								JOINT RightHandRing1
								{
									OFFSET -22.908302 -0.839325 -6.020576
									CHANNELS 3 Xrotation Yrotation Zrotation
									JOINT RightHandRing2
									{
										OFFSET -6.337502 0.000000 0.000000
										CHANNELS 3 Xrotation Yrotation Zrotation
										JOINT RightHandRing3
										{
											OFFSET -5.779297 0.000000 0.000000
											CHANNELS 3 Xrotation Yrotation Zrotation
											JOINT RightHandRing4
											{
												OFFSET -4.965698 0.000000 0.000000
												CHANNELS 3 Xrotation Yrotation Zrotation
												End Site
												{
													OFFSET 0.000000 4.965668 0.016226
												}
											}
										}
									}
								}
								JOINT RightHandPinky1
								{
									OFFSET -20.037003 -1.530334 -10.950259
									CHANNELS 3 Xrotation Yrotation Zrotation
									JOINT RightHandPinky2
									{
										OFFSET -5.254700 0.000000 0.000000
										CHANNELS 3 Xrotation Yrotation Zrotation
										JOINT RightHandPinky3
										{
											OFFSET -4.810204 0.000000 0.000000
											CHANNELS 3 Xrotation Yrotation Zrotation
											JOINT RightHandPinky4
											{
												OFFSET -3.647202 0.000000 0.000000
												CHANNELS 3 Xrotation Yrotation Zrotation
												End Site
												{
													OFFSET 0.000000 3.647186 0.011917
												}
											}
										}
									}
								}
							}
						}
					}
				}
			}
		}
	}
	JOINT LeftUpLeg
	{
		OFFSET 15.427100 -6.655098 0.678600
		CHANNELS 3 Xrotation Yrotation Zrotation
		JOINT LeftLeg
		{
			OFFSET 4.081073 -39.591068 13.024000
			CHANNELS 3 Xrotation Yrotation Zrotation
			JOINT LeftFoot
			{
				OFFSET -4.081074 -37.707932 -15.979700
				CHANNELS 3 Xrotation Yrotation Zrotation
				JOINT LeftToeBase
				{
					OFFSET 5.346399 -15.068900 20.645000
					CHANNELS 3 Xrotation Yrotation Zrotation
					JOINT LeftToe_End
					{
						OFFSET 2.754700 0.931300 11.300900
						CHANNELS 3 Xrotation Yrotation Zrotation
						End Site
						{
							OFFSET 0.000000 11.669021 0.000000
						}
					}
				}
			}
		}
	}
	JOINT RightUpLeg
	{
		OFFSET -15.569500 -6.655098 0.678600
		CHANNELS 3 Xrotation Yrotation Zrotation
		JOINT RightLeg
		{
			OFFSET -4.081825 -39.591045 13.023800
			CHANNELS 3 Xrotation Yrotation Zrotation
			JOINT RightFoot
			{
				OFFSET 4.081824 -37.707954 -15.979600
				CHANNELS 3 Xrotation Yrotation Zrotation
				JOINT RightToeBase
				{
					OFFSET -5.346400 -15.068900 20.645000
					CHANNELS 3 Xrotation Yrotation Zrotation
					JOINT RightToe_End
					{
						OFFSET -2.754700 0.931300 11.300900
						CHANNELS 3 Xrotation Yrotation Zrotation
						End Site
						{
							OFFSET 0.000000 11.669021 0.000000
						}
					}
				}
			}
		}
	}
}
MOTION
Frames: 4
Frame Time: 0.033333
-78.283363 15.204056 -9.566544 -81.969080 -48.285025 190.653174 8.137546 2.437945 1.464821 2.023049 0.203138 6.361752 2.007253 0.274429 6.362704 -20.811214 1.945877 5.271885 9.858108 23.190531 13.208387 -0.000000 0.000000 -0.000000 0.525551 -3.091467 4.001092 -105.019076 -57.268957 -45.557215 0.000063 -69.931486 0.000074 -118.240547 -2.865444 36.696506 -3.691264 -2.550879 6.273800 22.379639 -0.866763 11.589802 -9.558920 -10.364617 20.578812 -0.000002 0.000001 0.000002 -1.424132 1.112823 -28.691818 2.594766 4.863844 -56.137683 0.197158 1.508548 -14.891373 -0.000001 -0.000000 -0.000000 0.039416 2.454320 -6.250418 4.222748 5.620669 -73.814886 0.646000 2.676195 -27.137477 -0.000002 0.000001 -0.000001 0.221222 5.481223 -54.392802 3.983321 5.545936 -71.354419 0.520739 2.416482 -24.318385 0.000001 -0.000000 -0.000004 -0.581555 4.960503 -55.050963 4.098329 5.583245 -72.540290 1.123788 3.451798 -36.057959 -0.000001 -0.000003 -0.000000 -0.385907 21.014293 15.898642 -49.819362 40.840092 57.430710 -0.000012 120.246587 0.000018 -27.963495 9.350999 -27.475706 -9.905194 -16.448646 25.961015 -33.564209 -5.838562 -29.611496 -6.781370 -5.703361 -63.828978 -0.000003 -0.000001 0.000001 -0.426100 -0.135922 10.557694 4.498962 -4.654478 88.050947 2.250808 -3.988466 58.860576 0.000000 0.000000 0.000001 -5.045255 -6.354601 86.385296 6.349958 -4.339274 111.335574 0.248732 -1.503071 18.790267 0.000000 0.000001 -0.000003 -2.463934 -7.714095 95.883015 4.769974 -4.655812 91.389113 0.707221 -2.469158 31.961191 0.000000 0.000000 -0.000000 -4.075894 -8.861318 101.576886 2.408749 -4.079507 61.105837 1.847358 -3.715525 52.860941 -0.000001 0.000000 -0.000000 -25.187245 16.396492 13.271029 19.875393 8.891675 -8.421152 -5.126524 20.718127 -3.626914 -3.205959 -0.159319 -3.294050 0.000000 -0.000000 0.000001 -1.384568 -10.211149 -14.456584 40.459042 -7.546592 -6.048609 14.403180 -14.673406 7.552960 -6.409605 0.000000 -0.000001 0.000001 0.000001 -0.000000 
-80.954445 15.575348 -10.142502 -79.995005 -55.370517 193.621328 7.947735 4.139843 1.404364 1.570989 0.380902 6.151775 1.537720 0.459269 6.153478 -22.443238 1.042638 5.875666 6.515168 21.496374 16.486543 -0.000003 -0.000001 0.000001 0.557766 -2.832874 4.466623 -112.115069 -59.753261 -50.416529 -0.000069 -66.027138 -0.000053 -117.375162 -1.093637 34.437858 -3.555306 -2.668927 6.112969 22.044138 -0.177368 12.044038 -9.364841 -10.291416 19.824154 0.000004 0.000001 -0.000000 -1.908764 0.083269 -28.096584 2.549501 4.833267 -55.602159 0.183858 1.457638 -14.377546 0.000004 0.000000 -0.000000 0.043656 2.450688 -5.742823 4.239346 5.625452 -73.984370 0.653454 2.690672 -27.296673 -0.000002 0.000000 0.000000 0.325088 5.567958 -54.609606 3.909380 5.520551 -70.587601 0.488887 2.344797 -23.551715 0.000001 0.000001 -0.000003 -0.424755 5.007392 -54.242412 4.086608 5.579567 -72.419833 1.115783 3.440796 -35.924831 -0.000000 -0.000001 -0.000001 -0.408119 22.666060 15.465705 -52.554167 39.339089 57.316632 0.000005 119.643604 -0.000012 -27.058851 11.188677 -27.632085 -9.794125 -16.453236 25.983380 -33.585003 -5.810563 -29.681226 -6.783978 -5.693258 -63.841765 0.000001 -0.000002 -0.000001 -0.415810 -0.204837 10.600600 4.499071 -4.654485 88.052524 2.247991 -3.986782 58.820257 0.000000 -0.000001 -0.000005 -5.079857 -6.294340 86.036936 6.356787 -4.336590 111.425835 0.248734 -1.503072 18.790262 -0.000001 0.000000 -0.000001 -2.602897 -7.658905 95.369419 4.766959 -4.655883 91.352161 0.705628 -2.466628 31.924263 -0.000000 -0.000000 -0.000001 -3.993392 -8.786482 101.251155 2.427514 -4.089791 61.369243 1.864796 -3.728650 53.129456 -0.000001 0.000002 -0.000000 -26.456960 15.386663 9.295641 21.713142 9.270690 -9.204830 -8.091661 15.734575 1.207869 -3.271342 -0.148507 -3.316304 -0.000001 0.000001 0.000000 1.034744 -9.461272 -11.557625 38.846684 -4.282448 -3.951464 13.381071 -10.437094 6.308632 -6.556473 0.000003 -0.000009 0.000001 -0.000001 0.000001 
-83.724945 15.764183 -10.091942 -77.305010 -62.248329 197.106173 7.112768 5.886943 1.724622 1.352468 0.599378 5.865442 1.303556 0.667702 5.868129 -24.119684 -0.005207 6.399989 3.072060 19.004199 19.689683 -0.000001 0.000000 -0.000002 0.861559 -4.984859 5.727247 -120.137249 -57.408758 -57.423231 -0.000032 -64.917089 -0.000031 -112.002391 2.395442 35.434530 -3.417570 -2.790110 5.949892 21.756463 0.397220 12.350503 -9.164651 -10.219818 19.050970 0.000001 -0.000001 -0.000000 -2.222383 -0.710133 -27.321406 2.490506 4.792504 -54.899035 0.166992 1.390157 -13.698463 0.000002 0.000000 -0.000002 0.047841 2.450255 -5.229979 4.212560 5.617735 -73.710862 0.649768 2.683525 -27.217937 0.000001 0.000002 0.000001 0.306259 5.549809 -54.527234 3.861631 5.503572 -70.090486 0.468859 2.298351 -23.057436 0.000003 0.000002 -0.000002 -0.387047 4.963983 -53.318400 4.079548 5.577328 -72.347201 1.111046 3.434261 -35.845926 0.000001 -0.000000 0.000001 -0.242581 23.128641 14.423051 -55.258665 37.766653 58.159771 0.000007 119.912741 -0.000011 -26.116700 12.285798 -27.263118 -9.629559 -16.456159 26.015388 -33.605815 -5.782625 -29.750921 -6.786426 -5.681367 -63.853328 -0.000003 -0.000002 -0.000001 -0.419017 -0.251851 10.827357 4.499085 -4.654487 88.052804 2.242462 -3.983430 58.740453 0.000001 -0.000001 -0.000003 -4.907932 -6.288225 85.932345 6.360591 -4.335104 111.475927 0.248733 -1.503074 18.790264 0.000003 0.000003 0.000001 -2.597452 -7.593441 94.892166 4.766809 -4.655887 91.350625 0.705557 -2.466515 31.922781 0.000000 0.000000 -0.000002 -3.841661 -8.701329 100.939705 2.447397 -4.100532 61.647402 1.883443 -3.742534 53.415689 -0.000002 0.000003 0.000003 -26.236915 14.705435 4.934670 22.127086 9.604342 -9.756643 -10.703702 11.501918 8.197711 -1.496579 -0.542863 -6.573301 0.000000 0.000000 -0.000001 3.055738 -9.356668 -7.462216 37.360797 -0.538373 -1.948472 10.399346 -9.063127 -0.019040 -6.346334 0.000003 -0.000004 0.000003 -0.000001 -0.000001 
-86.297096 15.835190 -9.814392 -73.819564 -69.140332 201.600273 5.808208 7.409061 1.638940 1.271858 0.816508 5.626397 1.210233 0.865291 5.631564 -26.059014 -0.868763 6.217668 -0.480817 15.637551 22.389953 -0.000000 0.000000 0.000001 1.194965 -8.824876 7.797891 -125.830704 -52.761053 -62.192178 0.000034 -65.811577 0.000035 -104.814553 6.947311 38.269581 -3.279656 -2.913217 5.786450 21.583596 0.827050 12.571481 -9.061469 -10.184563 18.654551 -0.000003 0.000003 0.000000 -2.358412 -1.156054 -26.669242 2.432840 4.751584 -54.205945 0.151036 1.323005 -13.024501 -0.000003 0.000002 0.000001 0.051053 2.459107 -4.900761 4.170142 5.605225 -73.277200 0.636838 2.658257 -26.940447 0.000000 0.000000 0.000000 0.299447 5.547660 -54.573208 3.865986 5.505143 -70.136016 0.470747 2.302742 -23.104080 0.000000 0.000004 -0.000001 -0.346192 4.957387 -52.825028 4.085030 5.579077 -72.403687 1.114036 3.438378 -35.895574 0.000001 0.000001 -0.000001 0.029664 22.656496 12.974174 -58.427877 36.472199 60.185728 -0.000017 120.516789 0.000016 -25.265688 13.007495 -26.359843 -9.471994 -16.447857 26.072707 -33.626684 -5.754887 -29.820319 -6.787658 -5.672600 -63.863901 -0.000002 0.000000 -0.000001 -0.433454 -0.277764 11.197364 4.499012 -4.654470 88.051780 2.227448 -3.974307 58.524435 -0.000000 -0.000000 -0.000002 -4.606222 -6.369189 86.317151 6.358145 -4.336054 111.443866 0.248732 -1.503071 18.790257 -0.000001 0.000006 -0.000003 -2.620050 -7.560405 94.633576 4.770094 -4.655809 91.390930 0.707296 -2.469284 31.962867 -0.000000 0.000000 -0.000001 -3.783150 -8.658662 100.758541 2.458489 -4.106501 61.802454 1.893783 -3.750161 53.574108 -0.000000 0.000001 -0.000001 -24.031636 14.445024 -0.285313 18.840314 8.421109 -10.287289 -10.422896 5.566381 16.011114 -6.352014 0.015226 -2.827672 0.000001 0.000001 0.000000 4.553017 -9.297656 -3.134700 36.365645 1.246144 -0.875797 7.077068 -9.633735 -7.571230 -6.109162 0.000003 0.000006 -0.000003 -0.000001 -0.000000 
